HIERARCHY
ROOT Hips
{
  OFFSET 0 0 0
  CHANNELS 6 Xposition Yposition Zposition Zrotation Xrotation Yrotation
  JOINT Spine
  {
    OFFSET 0.00000000 0.00000000 0.00000000
    CHANNELS 3 Zrotation Xrotation Yrotation
    JOINT Spine1
    {
      OFFSET 0.19000000 0.00000000 0.00000000
      CHANNELS 3 Zrotation Xrotation Yrotation
      JOINT Neck
      {
        OFFSET 0.22500000 0.00600000 0.00000000
        CHANNELS 3 Zrotation Xrotation Yrotation
        JOINT Head
        {
          OFFSET 0.14000000 0.00030878 0.00000000
          CHANNELS 3 Zrotation Xrotation Yrotation
          End Site
          {
            OFFSET 0.17000000 0.00000000 0.00000000
          }
        }
      }
      JOINT LeftShoulder
      {
        OFFSET 0.19800000 0.03700000 0.04300000
        CHANNELS 3 Zrotation Xrotation Yrotation
        JOINT LeftArm
        {
          OFFSET 0.08000000 0.00000000 0.00000000
          CHANNELS 3 Zrotation Xrotation Yrotation
          JOINT LeftForeArm
          {
            OFFSET 0.15200000 0.00000000 0.00000000
            CHANNELS 3 Zrotation Xrotation Yrotation
            JOINT LeftHand
            {
              OFFSET 0.17800000 0.00000000 0.00000000
              CHANNELS 3 Zrotation Xrotation Yrotation
              End Site
              {
                OFFSET 0.07200000 0.00000000 0.00000000
              }
            }
          }
        }
      }
      JOINT RightShoulder
      {
        OFFSET 0.19800000 0.03700000 -0.04300000
        CHANNELS 3 Zrotation Xrotation Yrotation
        JOINT RightArm
        {
          OFFSET 0.08000000 0.00000000 0.00151654
          CHANNELS 3 Zrotation Xrotation Yrotation
          JOINT RightForeArm
          {
            OFFSET 0.15200000 0.00000000 0.00000000
            CHANNELS 3 Zrotation Xrotation Yrotation
            JOINT RightHand
            {
              OFFSET 0.17800000 0.00000000 0.00000000
              CHANNELS 3 Zrotation Xrotation Yrotation
              End Site
              {
                OFFSET 0.07200000 0.00000000 0.00000000
              }
            }
          }
        }
      }
    }
  }
  JOINT LeftUpLeg
  {
    OFFSET 0.05984250 -0.07666000 0.04788790
    CHANNELS 3 Zrotation Xrotation Yrotation
    JOINT LeftLeg
    {
      OFFSET 0.16000000 0.00000000 0.00000000
      CHANNELS 3 Zrotation Xrotation Yrotation
      JOINT LeftFoot
      {
        OFFSET 0.18000000 0.00000000 0.00000000
        CHANNELS 3 Zrotation Xrotation Yrotation
        End Site
        {
          OFFSET 0.00000000 -0.10800000 0.00000000
        }
      }
    }
  }
  JOINT RightUpLeg
  {
    OFFSET 0.05984250 -0.07665980 -0.04788790
    CHANNELS 3 Zrotation Xrotation Yrotation
    JOINT RightLeg
    {
      OFFSET 0.16000000 0.00000000 0.00000000
      CHANNELS 3 Zrotation Xrotation Yrotation
      JOINT RightFoot
      {
        OFFSET 0.18000000 0.00000000 0.00000000
        CHANNELS 3 Zrotation Xrotation Yrotation
        End Site
        {
          OFFSET 0.00000000 -0.10800000 0.00000000
        }
      }
    }
  }
  JOINT Tail
  {
    OFFSET 0.06836960 -0.00722574 0.00000000
    CHANNELS 3 Zrotation Xrotation Yrotation
    JOINT Tail1
    {
      OFFSET 0.12000000 0.00000000 0.00000000
      CHANNELS 3 Zrotation Xrotation Yrotation
      End Site
      {
        OFFSET 0.12000000 0.00000000 0.00000000
      }
    }
  }
}
MOTION
Frames:	20
Frame Time:	0.0166667
0.0000000 0.4582240 0.0000000 0.83773 4.75685 -0.06948 -166.488 -1.45238 -13.1043 -20.4232 -8.24722 25.0788 -19.6665 -10.3852 11.7467 -96.3952 72.2755 114.595 -110.694 -36.4565 -139.173 124.519 -42.4613 -123.291 -56.2621 16.9699 -9.46685 -3.92012 1.78081 -17.1667 76.9084 -26.7355 42.2524 37.4776 -52.5203 -47.0858 -58.2005 -17.043 1.94364 -8.26499 0.723441 -0.104208 -131.408 -1.84374 -12.4409 80.4371 13.4124 5.12733 44.4211 -3.59495 -6.56046 -121.804 2.62462 -5.70651 79.6506 0.700179 -2.67216 52.8087 0.15493 -2.23045 -46.5501 68.2121 -12.8258 -14.2002 -71.5464 -12.3283 
-0.0003051 0.4578450 -0.0000206 1.22021 4.84757 -0.24468 -167.544 -1.29781 -13.6498 -19.4466 -8.13077 25.7901 -19.7176 -10.2311 11.928 -95.7938 73.7133 113.804 -110.141 -35.9199 -138.762 125.176 -41.8811 -122.902 -56.0165 17.0395 -9.49671 -4.15433 1.80094 -17.1503 76.4434 -27.5802 42.7326 37.6505 -51.6839 -48.6952 -57.1087 -17.3214 2.49021 -9.08441 0.76443 -0.582364 -131.84 -1.79767 -12.5141 80.4947 13.2515 5.13161 44.4324 -3.54816 -6.50026 -122.203 2.6294 -5.75588 79.7398 0.598386 -2.65181 52.6845 0.18708 -2.18881 -46.8604 68.017 -12.9013 -14.0389 -71.2879 -12.2439 
-0.0003224 0.4576480 -0.0005356 1.20459 4.43845 0.02936 -167.555 -1.44582 -12.8536 -19.4649 -8.1037 24.8576 -19.5965 -10.1435 12.1478 -96.4493 73.1382 114.618 -110.71 -36.4587 -139.21 124.655 -42.4587 -123.438 -56.0424 18.1626 -9.28502 -5.3734 1.71695 -16.3641 76.6383 -27.3162 42.7797 36.1175 -52.6481 -48.3776 -57.3119 -16.8787 1.71863 -8.69908 0.664273 0.200303 -131.793 -1.87189 -12.1684 80.5228 14.8634 5.14115 44.2676 -3.75594 -6.76332 -122.293 2.57432 -5.42782 80.0167 0.874673 -2.6928 52.4652 0.112442 -2.26721 -46.6981 68.4313 -13.0711 -13.5327 -70.7342 -11.8767 
-0.0002529 0.4576340 -0.0007179 1.09961 4.25456 0.08726 -167.553 -1.47128 -12.7664 -19.281 -8.0822 24.8012 -19.5723 -10.0711 12.0919 -96.5209 73.1246 114.747 -110.753 -36.5062 -139.23 124.839 -42.2418 -123.115 -55.8605 18.0979 -9.39006 -5.60069 1.73574 -16.2468 76.6176 -27.4121 42.9574 35.8084 -52.5594 -48.6964 -57.0363 -16.8393 1.78132 -8.80582 0.654906 0.243309 -131.703 -1.96479 -11.9317 80.5454 14.9806 5.07753 44.3319 -3.77481 -6.78435 -122.269 2.53725 -5.33654 80.0483 1.0456 -2.69296 52.5298 0.083419 -2.30318 -46.6717 68.611 -13.0307 -13.4249 -70.6648 -11.7597 
-0.0001929 0.4577570 -0.0007484 1.06177 4.32025 -0.01385 -167.658 -1.3989 -12.9081 -19.1243 -7.95766 24.8209 -19.5477 -9.99085 12.0423 -96.7179 73.1432 114.9 -110.764 -36.4872 -139.295 125.112 -41.9797 -122.874 -55.5286 17.9076 -9.50201 -5.64109 1.75682 -16.25 76.6464 -27.3926 43.0176 35.8896 -52.4871 -48.5767 -57.0305 -16.7243 1.77874 -8.7772 0.63391 0.279216 -131.706 -1.91885 -11.9859 80.6362 14.9543 5.05146 44.3665 -3.76161 -6.76671 -122.193 2.53284 -5.43867 79.9888 1.05059 -2.66238 52.5023 0.085451 -2.29774 -46.5637 68.5267 -13.1585 -13.4388 -70.6788 -11.7368 
-0.0002296 0.4578850 -0.0009208 0.97256 4.26255 0.02465 -167.816 -1.38586 -12.8681 -18.8194 -7.88238 24.7818 -19.4834 -10.0162 12.1025 -96.7688 73.1694 114.823 -110.681 -36.4171 -139.214 125.498 -41.9311 -122.879 -55.3212 17.8185 -9.33792 -5.73072 1.76776 -16.285 76.5284 -27.4725 42.7727 36.39 -52.3178 -48.1467 -56.9685 -16.9831 1.79379 -9.07773 0.688334 0.168755 -131.622 -1.94688 -11.9396 80.6433 14.9009 5.00597 44.4125 -3.74451 -6.74009 -122.054 2.50333 -5.33932 80.0688 0.927704 -2.66612 52.3824 0.0994684 -2.2752 -46.5193 68.6184 -13.137 -13.3995 -70.749 -11.678 
-0.0003553 0.4579800 -0.0009927 0.88027 4.26573 -0.02156 -167.894 -1.37099 -12.938 -18.5441 -7.80418 24.8103 -19.4817 -9.9327 12.1086 -96.9686 73.1947 115.017 -110.655 -36.4437 -139.094 125.753 -41.9952 -122.829 -55.2981 17.9049 -9.18403 -5.9684 1.77629 -16.2601 76.522 -27.5067 42.8396 36.2285 -52.2049 -48.2468 -56.836 -16.9163 1.79376 -9.07728 0.684996 0.146923 -131.494 -1.93498 -11.9079 80.6555 14.8884 4.96659 44.4375 -3.73457 -6.72517 -121.95 2.50152 -5.39156 80.0871 1.03279 -2.64015 52.4107 0.0877537 -2.29136 -46.4632 68.5735 -13.1024 -13.2591 -70.7728 -11.5172 
-0.0005765 0.4580970 -0.0009785 0.69367 4.15270 0.10423 -167.645 -1.36964 -12.8532 -18.5595 -7.82422 24.8862 -19.4659 -9.87071 12.0726 -97.1053 73.1975 115.097 -110.641 -36.4235 -139.099 125.948 -41.9616 -122.721 -55.2862 17.8296 -9.13426 -5.96069 1.79407 -16.3012 76.5453 -27.504 42.9228 36.2017 -52.2314 -48.1278 -56.9033 -16.8024 1.76717 -8.922 0.681181 0.108687 -131.26 -1.99097 -11.7022 80.6703 14.876 4.88358 44.4698 -3.73948 -6.73178 -121.767 2.51951 -5.3237 80.1013 1.22134 -2.65372 52.5242 0.0600878 -2.33105 -46.1671 68.7989 -13.2982 -13.3708 -70.7484 -11.6226 
-0.0009278 0.4580740 -0.0010198 0.82538 4.18088 0.08803 -168.034 -1.29515 -12.7981 -18.2282 -7.68842 24.788 -19.4927 -9.74959 12.0757 -97.497 73.235 115.337 -110.616 -36.4306 -139.017 126.346 -41.7834 -122.475 -54.87 17.5936 -9.09789 -6.05838 1.84202 -16.4329 76.543 -27.5082 42.9253 35.9363 -52.2243 -48.1818 -56.6632 -16.8149 1.71269 -9.10679 0.659965 0.294656 -131.372 -1.97274 -11.6967 80.7058 14.7582 4.86209 44.4105 -3.7181 -6.70572 -121.787 2.5179 -5.32583 79.9934 1.10281 -2.66138 52.4494 0.0772723 -2.30554 -46.1795 68.7388 -13.4071 -13.2041 -70.6983 -11.4493 
-0.0011864 0.4582950 -0.0010590 0.83190 4.27896 0.11204 -168.099 -1.20171 -12.7594 -18.1717 -7.57461 24.7352 -19.4873 -9.63818 12.0367 -97.7801 73.2514 115.555 -110.566 -36.3681 -139.009 126.491 -41.7402 -122.381 -54.7865 17.4713 -9.13967 -5.9118 1.85167 -16.5204 76.5846 -27.5526 43.2054 35.5488 -52.2428 -48.6506 -56.4492 -16.8905 1.69108 -9.31895 0.659814 0.347053 -131.308 -1.8335 -11.7923 80.6334 14.8937 4.85147 44.4734 -3.73398 -6.72521 -121.638 2.55529 -5.35576 79.8755 0.891335 -2.67927 52.3923 0.106409 -2.26709 -45.9831 68.7253 -13.6534 -13.1148 -70.7097 -11.3899 
-0.0015553 0.4581870 -0.0010346 0.89953 4.24740 0.12295 -168.241 -1.2054 -12.7264 -18.0314 -7.56866 24.7352 -19.4034 -9.48476 12.0066 -98.3175 73.1925 115.871 -110.551 -36.3773 -138.952 126.412 -41.8391 -122.446 -54.8277 17.8087 -9.0682 -6.26757 1.8362 -16.3419 76.5618 -27.5485 43.106 35.5301 -52.3245 -48.4524 -56.4987 -16.6103 1.6114 -9.12431 0.615618 0.490516 -131.267 -1.86554 -11.7432 80.5111 14.9252 4.86758 44.4764 -3.73949 -6.73152 -121.706 2.54203 -5.32262 79.8799 0.949954 -2.67887 52.4778 0.100283 -2.27901 -46.2684 68.8535 -13.472 -13.2071 -70.8208 -11.5348 
-0.0018714 0.4581170 -0.0010137 0.87414 4.14280 0.20038 -168.092 -1.2283 -12.6398 -18.1467 -7.62749 24.7502 -19.2655 -9.41988 12.1763 -98.2855 73.6526 115.654 -110.564 -36.3421 -139.053 126.292 -41.7761 -122.474 -54.9186 17.6923 -9.08027 -6.27236 1.86178 -16.365 76.6107 -27.5166 43.211 35.5186 -52.4171 -48.3958 -56.5896 -16.5643 1.57239 -9.05883 0.62215 0.431175 -131.203 -1.93793 -11.641 80.4962 14.9765 4.86697 44.5009 -3.75682 -6.75245 -121.689 2.52249 -5.23221 79.8794 0.981711 -2.69992 52.5896 0.0958172 -2.29322 -46.2627 69.0802 -13.5441 -13.5498 -70.8141 -11.8885 
-0.0020970 0.4581430 -0.0009447 0.97141 4.07966 0.32130 -168.185 -1.16379 -12.2701 -18.1874 -7.51329 24.3532 -19.3291 -9.23794 12.0913 -98.652 73.6437 116.005 -110.653 -36.4149 -139.145 126.312 -41.8213 -122.254 -54.7793 17.8456 -9.18647 -6.51092 1.89678 -16.4231 76.5934 -27.552 43.238 35.7609 -52.5258 -48.3283 -56.6733 -16.7719 1.59059 -9.21533 0.646077 0.496185 -131.33 -1.94542 -11.5273 80.5427 14.8993 4.82901 44.5383 -3.75673 -6.75491 -121.728 2.51038 -5.09938 79.8722 0.913728 -2.73518 52.5308 0.0932187 -2.29254 -46.4403 69.337 -13.5307 -13.4832 -70.988 -11.8716 
-0.0021616 0.4581930 -0.0011287 1.07761 4.07226 0.27077 -168.358 -1.15683 -12.2799 -18.1514 -7.48273 24.2662 -19.2383 -9.18746 12.0516 -98.6574 73.6704 116.077 -110.585 -36.3186 -139.157 126.315 -41.6621 -122.279 -54.5687 17.8978 -9.24625 -6.58548 1.89731 -16.3931 76.5285 -27.6077 43.1348 35.7707 -52.6558 -48.3361 -56.6803 -16.6963 1.5669 -9.29358 0.58492 0.807188 -131.448 -1.92606 -11.5713 80.5843 14.8384 4.83618 44.4572 -3.74153 -6.73647 -121.778 2.46786 -5.08312 79.9007 0.851368 -2.71734 52.3669 0.0939425 -2.28197 -46.9221 69.3943 -13.1568 -13.7997 -71.187 -12.2019 
-0.0021497 0.4581720 -0.0010572 1.07120 4.01710 0.31121 -168.411 -1.16546 -12.1969 -18.0323 -7.47323 24.2294 -19.1217 -9.11675 12.038 -98.9254 73.615 116.23 -110.611 -36.3264 -139.208 126.232 -41.5622 -122.222 -54.5938 17.8615 -9.33148 -6.65548 1.91498 -16.3966 76.5871 -27.5934 43.3239 35.3185 -52.6607 -48.6008 -56.5436 -16.5444 1.49921 -9.22887 0.558115 0.881708 -130.775 -1.81284 -11.386 80.0145 15.6679 4.71586 43.3336 -3.79076 -6.81547 -121.839 2.48931 -5.06129 79.984 1.03246 -2.71391 52.3765 0.0580777 -2.32196 -47.0508 69.5341 -13.0596 -14.0184 -71.3318 -12.4022 
-0.0020856 0.4581020 -0.0012191 0.92025 3.80114 0.34229 -168.243 -1.26753 -12.2383 -17.9363 -7.57023 24.3427 -19.1441 -9.01219 11.9479 -99.0811 73.5899 116.415 -110.644 -36.3816 -139.188 126.296 -41.4556 -122.086 -54.6614 17.6768 -9.33439 -6.60224 1.92603 -16.3895 76.6042 -27.6068 43.4261 34.8483 -52.7795 -48.6764 -56.5931 -16.1867 1.4087 -8.93445 0.48997 1.08179 -130.594 -2.00225 -11.2177 79.9588 15.659 4.73434 43.4311 -3.80319 -6.82629 -121.805 2.46 -5.00766 80.0665 1.41058 -2.68493 52.4402 0.00175763 -2.38702 -47.2053 69.7389 -12.7839 -14.2592 -71.4664 -12.5491 
-0.0019894 0.4582240 -0.0013465 0.84056 3.73880 0.33235 -168.12 -1.23737 -12.219 -18.0295 -7.50403 24.2155 -19.1697 -9.02795 11.9092 -98.8935 73.7877 116.167 -110.702 -36.3998 -139.303 126.48 -41.4223 -121.958 -54.5897 17.6661 -9.35048 -6.59259 1.91331 -16.3291 76.5739 -27.644 43.4073 35.2004 -52.8118 -48.3419 -56.7487 -16.429 1.39143 -8.99036 0.555931 0.913901 -130.539 -2.12609 -11.2693 79.9588 15.4207 4.79963 43.4218 -3.77839 -6.79316 -121.681 2.41153 -4.97018 80.0527 1.37601 -2.67321 52.3146 0.00111191 -2.3801 -47.5388 69.8506 -12.3739 -14.4713 -71.7532 -12.732 
-0.0020245 0.4582350 -0.0015247 0.90503 3.66716 0.39008 -168.42 -1.23036 -12.1535 -17.7677 -7.46065 24.1543 -19.1108 -9.12443 11.9658 -98.6799 73.8565 115.889 -110.634 -36.3753 -139.172 126.768 -41.3748 -121.796 -54.3207 17.7139 -9.33042 -6.71836 1.8959 -16.2276 76.4607 -27.7289 43.1951 35.3933 -52.8225 -48.0882 -56.6686 -16.5601 1.3499 -9.23849 0.558859 1.05447 -130.689 -2.23941 -11.2381 80.0448 14.9997 4.80091 43.4245 -3.72459 -6.72357 -121.701 2.39416 -4.85369 80.1423 1.28552 -2.67132 52.1007 0.00923394 -2.36012 -47.6632 70.0105 -12.3629 -14.5946 -71.9522 -12.7897 
-0.0018985 0.4583110 -0.0016856 0.84162 3.59430 0.38395 -168.495 -1.26167 -12.242 -17.5444 -7.47334 24.2726 -19.03 -9.09792 11.9561 -98.7592 73.9335 115.844 -110.634 -36.3595 -139.205 126.839 -41.2286 -121.761 -54.2639 17.6616 -9.35106 -6.80074 1.90616 -16.2052 76.5075 -27.7284 43.3738 35.1242 -52.6906 -48.2981 -56.5022 -16.36 1.34135 -9.21839 0.534386 1.04852 -130.685 -2.27096 -11.1104 80.0861 15.0358 4.75944 43.5874 -3.72918 -6.72531 -121.677 2.37178 -4.81771 80.185 1.32384 -2.67418 52.1025 0.00488423 -2.36546 -47.7583 70.0275 -12.1739 -14.4419 -72.1033 -12.5591 
-0.0018693 0.4582670 -0.0017947 0.76507 3.52350 0.40147 -168.428 -1.26243 -12.2669 -17.5008 -7.47177 24.3291 -18.8218 -8.53887 12.2186 -99.9788 75.8652 115.34 -110.64 -36.3564 -139.226 126.903 -41.101 -121.599 -54.2804 17.4384 -9.37073 -6.84455 1.94648 -16.2674 76.573 -27.6697 43.4717 34.8843 -52.7779 -48.185 -56.5656 -16.1686 1.25958 -9.04689 0.50254 1.13732 -130.626 -2.31396 -11.0315 80.1342 15.1283 4.7295 43.6119 -3.74264 -6.74187 -121.737 2.37222 -4.80217 80.2782 1.46049 -2.67967 52.3016 -0.0090938 -2.39496 -47.7319 70.1018 -12.1459 -14.4613 -72.2087 -12.51 
